<?xml version="1.0" encoding="UTF-8" standalone="no"?>
<!-- Created with Inkscape (http://www.inkscape.org/) -->

<svg
   xmlns:dc="http://purl.org/dc/elements/1.1/"
   xmlns:cc="http://creativecommons.org/ns#"
   xmlns:rdf="http://www.w3.org/1999/02/22-rdf-syntax-ns#"
   xmlns:svg="http://www.w3.org/2000/svg"
   xmlns="http://www.w3.org/2000/svg"
   xmlns:sodipodi="http://sodipodi.sourceforge.net/DTD/sodipodi-0.dtd"
   xmlns:inkscape="http://www.inkscape.org/namespaces/inkscape"
   width="48pt"
   height="48pt"
   viewBox="0 0 16.933334 16.933333"
   version="1.1"
   id="svg979"
   inkscape:version="0.92.4 (5da689c313, 2019-01-14)"
   sodipodi:docname="26 - Face Powder.svg"
   inkscape:export-filename="E:\TR Design Studio Creative\Project Design\TR Creative Design\Icon Design\Project Hiring\Icon Icons\Project - 001\002 - Beauty And Fashion\Send\Line\26 - Face Powder.png"
   inkscape:export-xdpi="768"
   inkscape:export-ydpi="768">
  <defs
     id="defs973" />
  <sodipodi:namedview
     id="base"
     pagecolor="#ffffff"
     bordercolor="#666666"
     borderopacity="1.0"
     inkscape:pageopacity="0.0"
     inkscape:pageshadow="2"
     inkscape:zoom="8.546875"
     inkscape:cx="32"
     inkscape:cy="32"
     inkscape:document-units="pt"
     inkscape:current-layer="layer1"
     showgrid="false"
     units="pt"
     inkscape:window-width="1366"
     inkscape:window-height="716"
     inkscape:window-x="-8"
     inkscape:window-y="-8"
     inkscape:window-maximized="1"
     inkscape:snap-bbox="true"
     inkscape:bbox-nodes="true"
     inkscape:snap-nodes="false"
     showguides="false">
    <inkscape:grid
       type="xygrid"
       id="grid1526" />
    <sodipodi:guide
       position="0.97013909,15.963209"
       orientation="56.666615,0"
       id="guide1528"
       inkscape:locked="false" />
    <sodipodi:guide
       position="0.97013909,0.97016731"
       orientation="0,56.666667"
       id="guide1530"
       inkscape:locked="false" />
    <sodipodi:guide
       position="15.963195,0.97016731"
       orientation="-56.666615,0"
       id="guide1532"
       inkscape:locked="false" />
    <sodipodi:guide
       position="15.963195,15.963209"
       orientation="0,-56.666667"
       id="guide1534"
       inkscape:locked="false" />
  </sodipodi:namedview>
  <metadata
     id="metadata976">
    <rdf:RDF>
      <cc:Work
         rdf:about="">
        <dc:format>image/svg+xml</dc:format>
        <dc:type
           rdf:resource="http://purl.org/dc/dcmitype/StillImage" />
        <dc:title></dc:title>
      </cc:Work>
    </rdf:RDF>
  </metadata>
  <g
     inkscape:label="Layer 1"
     inkscape:groupmode="layer"
     id="layer1"
     transform="translate(0,-280.06668)">
    <path
       style="color:#000000;font-style:normal;font-variant:normal;font-weight:normal;font-stretch:normal;font-size:medium;line-height:normal;font-family:sans-serif;font-variant-ligatures:normal;font-variant-position:normal;font-variant-caps:normal;font-variant-numeric:normal;font-variant-alternates:normal;font-feature-settings:normal;text-indent:0;text-align:start;text-decoration:none;text-decoration-line:none;text-decoration-style:solid;text-decoration-color:#000000;letter-spacing:normal;word-spacing:normal;text-transform:none;writing-mode:lr-tb;direction:ltr;text-orientation:mixed;dominant-baseline:auto;baseline-shift:baseline;text-anchor:start;white-space:normal;shape-padding:0;clip-rule:nonzero;display:inline;overflow:visible;visibility:visible;opacity:1;isolation:auto;mix-blend-mode:normal;color-interpolation:sRGB;color-interpolation-filters:linearRGB;solid-color:#000000;solid-opacity:1;vector-effect:none;fill:#000000;fill-opacity:1;fill-rule:nonzero;stroke:none;stroke-width:0.52916723;stroke-linecap:round;stroke-linejoin:round;stroke-miterlimit:4;stroke-dasharray:none;stroke-dashoffset:0;stroke-opacity:1;color-rendering:auto;image-rendering:auto;shape-rendering:auto;text-rendering:auto;enable-background:accumulate"
       d="m 10.071083,281.03687 c -2.0376326,0 -3.6969762,1.6587 -3.6969775,3.69635 1.3e-6,1.56996 0.9866663,2.91072 2.3708257,3.44492 l -1.1886123,-0.26741 c -0.031518,-0.009 -0.064064,-0.0111 -0.096597,-0.01 v 6.5e-4 c -0.3839835,0.0201 -0.4253099,0.57091 -0.048614,0.64804 l 0.1113161,0.025 c -0.3322894,-0.004 -0.669897,0.0124 -1.0082078,0.0525 -1.0565733,0.12583 -1.9417741,0.4492 -2.5486693,0.91608 -0.461543,0.35506 -0.7653976,0.83138 -0.7932605,1.33703 h -0.00703 v 2.29917 c 0,0.97075 1.2102084,1.53377 1.9102227,1.79443 1.0282403,0.37031 2.2834813,0.47582 3.4641175,0.30515 0.5353224,0.46646 1.232292,0.75104 1.9953044,0.75104 1.676096,0 3.041899,-1.36517 3.0419,-3.04126 5e-6,-1.36987 -0.912619,-2.53172 -2.160996,-2.91075 -0.234155,-0.34509 -0.578737,-0.62803 -1.002451,-0.85148 l 0.257171,0.0582 c 0.427336,0.0951 0.569995,-0.54589 0.142658,-0.641 l -1.018446,-0.22894 c 0.091546,0.006 0.1831145,0.0141 0.276362,0.0141 2.037635,0 3.696976,-1.65743 3.696978,-3.69507 -2e-6,-2.03764 -1.659343,-3.69633 -3.696978,-3.69633 z m 0,0.65509 c 1.683602,0 3.041259,1.35767 3.041259,3.04126 0,1.68361 -1.357657,3.04189 -3.041259,3.04189 -1.6836012,0 -3.0418975,-1.35828 -3.0418975,-3.04189 0,-1.68359 1.3582963,-3.04126 3.0418975,-3.04126 z m 1.242349,1.09713 c -0.01114,-3.4e-4 -0.0222,-1.4e-4 -0.03326,6.5e-4 -0.0966,0.007 -0.18513,0.0564 -0.241817,0.13498 l -2.4591087,3.28884 c -0.287498,0.35327 0.2676909,0.76763 0.5245758,0.39151 l 2.4591069,-3.2882 c 0.163718,-0.21178 0.01807,-0.51987 -0.249493,-0.52777 z m -1.6338617,0.0634 c -0.1084069,-0.002 -0.2109236,0.0491 -0.2738026,0.13754 l -1.1169625,1.53343 c -0.2698883,0.35499 0.2740824,0.75179 0.5296934,0.38639 l 1.1169625,-1.53278 c 0.1609619,-0.21374 0.011637,-0.51986 -0.2558908,-0.52458 z m 2.0426467,1.62874 c -0.0104,-2.8e-4 -0.02091,-6e-5 -0.03134,6.6e-4 -0.09623,0.009 -0.183783,0.0591 -0.239258,0.13818 l -1.119521,1.53278 c -0.2839,0.3572 0.278054,0.76509 0.529693,0.38447 l 1.119522,-1.53277 c 0.160042,-0.21476 0.0087,-0.52038 -0.25909,-0.52331 z m -2.4008933,5.00842 c 0.4028969,0.12132 0.7519433,0.28361 1.0286793,0.46636 -0.250567,0.0152 -0.49394,0.0573 -0.7248094,0.12986 -0.3821266,-0.22204 -0.8692236,-0.36876 -1.4041981,-0.43437 -0.6025664,-0.0739 -1.2581601,-0.052 -1.8737583,0.0652 -0.6156007,0.11723 -1.0927191,0.31156 -1.4022799,0.61158 -0.1547816,0.15 -0.2699194,0.34083 -0.2897961,0.56104 -0.019881,0.2202 0.067015,0.44192 0.214948,0.61413 0.2958617,0.34442 0.7711263,0.53563 1.3325495,0.6602 0.4188268,0.093 0.8889441,0.13832 1.3722133,0.12858 -0.028225,0.11959 -0.051053,0.24141 -0.064608,0.36593 -0.8879661,0.009 -1.7239904,-0.14285 -2.3695462,-0.40239 -0.6429634,-0.34003 -1.3197548,-0.63885 -1.3197548,-1.37605 0,-0.32691 0.3033333,-0.631 0.5437561,-0.81949 0.474689,-0.36518 1.2607679,-0.66862 2.2268865,-0.78367 0.8891656,-0.10374 1.921002,-0.0245 2.7297222,0.21304 z m -2.0125778,0.79134 c 0.5529037,-0.009 1.1021121,0.065 1.525747,0.1868 -0.4299806,0.29077 -0.7794453,0.68956 -1.0152455,1.15535 -0.5221172,0.0333 -1.0438246,-0.005 -1.4764879,-0.1004 -1.5348642,-0.33193 -1.0354672,-0.93027 0.1253866,-1.16046 0.2688199,-0.0513 0.5549215,-0.077 0.8405998,-0.0812 z m 3.2261381,0.32051 c 0.236124,0 0.463664,0.0359 0.67875,0.0992 l -2.8448625,3.2914 C 8.227387,293.68691 8.146148,293.34772 8.146148,292.9883 c -4.9e-6,-1.32206 1.066671,-2.38681 2.388736,-2.38681 z m 1.298645,0.38382 c 0.162989,0.1056 0.311192,0.2312 0.443331,0.37233 l -3.1045924,3.59078 c -0.1592803,-0.11055 -0.3035071,-0.24062 -0.4311752,-0.38575 z m 0.831004,0.92569 c 0.163377,0.32355 0.257171,0.68877 0.25717,1.0773 -1e-6,1.32206 -1.064757,2.38617 -2.386819,2.38617 -0.265502,0 -0.519735,-0.0448 -0.7580743,-0.1241 z m -8.8435741,0.31859 c 0.2904852,0.25515 0.6597586,0.46529 1.0760193,0.63268 0.7397598,0.29748 1.6478648,0.45951 2.6120017,0.44974 0.053479,0.50097 0.2292465,0.96635 0.4970674,1.36517 -0.9466187,0.0741 -1.9260665,-0.039 -2.7079608,-0.32051 -0.9418624,-0.33919 -1.4752085,-0.86205 -1.4752085,-1.30312 -0.00413,-0.27291 -0.00193,-0.54974 -0.00193,-0.82396 z"
       id="path881"
       inkscape:connector-curvature="0"
       sodipodi:nodetypes="cccccccccccccccsccccccscccsssssccccccccccccccccccccccccccccccccccccccccccccscccscccccccsccccccccc" />
  </g>
</svg>
