<?xml version="1.0" encoding="UTF-8" standalone="no"?>
<!-- Created with Inkscape (http://www.inkscape.org/) -->

<svg
   xmlns:dc="http://purl.org/dc/elements/1.1/"
   xmlns:cc="http://creativecommons.org/ns#"
   xmlns:rdf="http://www.w3.org/1999/02/22-rdf-syntax-ns#"
   xmlns:svg="http://www.w3.org/2000/svg"
   xmlns="http://www.w3.org/2000/svg"
   xmlns:sodipodi="http://sodipodi.sourceforge.net/DTD/sodipodi-0.dtd"
   xmlns:inkscape="http://www.inkscape.org/namespaces/inkscape"
   width="48pt"
   height="48pt"
   viewBox="0 0 16.933334 16.933333"
   version="1.1"
   id="svg979"
   inkscape:version="0.92.4 (5da689c313, 2019-01-14)"
   sodipodi:docname="11 - Libstick.svg"
   inkscape:export-filename="E:\TR Design Studio Creative\Project Design\TR Creative Design\Icon Design\Project Hiring\Icon Icons\Project - 001\002 - Beauty And Fashion\Send\2 - Solid\11 - Lipstick.svg.png"
   inkscape:export-xdpi="768"
   inkscape:export-ydpi="768">
  <defs
     id="defs973">
    <pattern
       y="0"
       x="0"
       height="6"
       width="6"
       patternUnits="userSpaceOnUse"
       id="EMFhbasepattern" />
    <pattern
       y="0"
       x="0"
       height="6"
       width="6"
       patternUnits="userSpaceOnUse"
       id="EMFhbasepattern-5" />
    <pattern
       y="0"
       x="0"
       height="6"
       width="6"
       patternUnits="userSpaceOnUse"
       id="EMFhbasepattern-9" />
    <pattern
       y="0"
       x="0"
       height="6"
       width="6"
       patternUnits="userSpaceOnUse"
       id="EMFhbasepattern-6" />
    <pattern
       y="0"
       x="0"
       height="6"
       width="6"
       patternUnits="userSpaceOnUse"
       id="EMFhbasepattern-0" />
  </defs>
  <sodipodi:namedview
     id="base"
     pagecolor="#ffffff"
     bordercolor="#666666"
     borderopacity="1.0"
     inkscape:pageopacity="0.0"
     inkscape:pageshadow="2"
     inkscape:zoom="8.546875"
     inkscape:cx="32"
     inkscape:cy="32"
     inkscape:document-units="pt"
     inkscape:current-layer="layer1"
     showgrid="false"
     units="pt"
     inkscape:window-width="1366"
     inkscape:window-height="716"
     inkscape:window-x="-8"
     inkscape:window-y="-8"
     inkscape:window-maximized="1"
     inkscape:snap-bbox="true"
     inkscape:bbox-nodes="true"
     inkscape:snap-nodes="false"
     showguides="false">
    <inkscape:grid
       type="xygrid"
       id="grid1526" />
    <sodipodi:guide
       position="0.97013909,15.963209"
       orientation="56.666615,0"
       id="guide1528"
       inkscape:locked="false" />
    <sodipodi:guide
       position="0.97013909,0.97016731"
       orientation="0,56.666667"
       id="guide1530"
       inkscape:locked="false" />
    <sodipodi:guide
       position="15.963195,0.97016731"
       orientation="-56.666615,0"
       id="guide1532"
       inkscape:locked="false" />
    <sodipodi:guide
       position="15.963195,15.963209"
       orientation="0,-56.666667"
       id="guide1534"
       inkscape:locked="false" />
  </sodipodi:namedview>
  <metadata
     id="metadata976">
    <rdf:RDF>
      <cc:Work
         rdf:about="">
        <dc:format>image/svg+xml</dc:format>
        <dc:type
           rdf:resource="http://purl.org/dc/dcmitype/StillImage" />
        <dc:title></dc:title>
      </cc:Work>
    </rdf:RDF>
  </metadata>
  <g
     inkscape:label="Layer 1"
     inkscape:groupmode="layer"
     id="layer1"
     transform="translate(0,-280.06668)">
    <path
       sodipodi:nodetypes="scccccccccscccccssccsccccsssccssscccccccsssccccccccccccccccccccccccccccccccccsssscccc"
       inkscape:connector-curvature="0"
       id="path1277"
       d="m 5.4066383,281.03964 c -0.1484019,0.0135 -0.2935566,0.0754 -0.4072851,0.18904 l -0.6496247,0.59444 c -0.06655,0.061 -0.1047053,0.14697 -0.1053069,0.23726 v 2.27496 a 0.32417835,0.32417835 0 0 0 0.3241777,0.32418 h 1.9507808 a 0.32417835,0.32417835 0 0 0 0.3241777,-0.32418 v -1.62533 c -3.241e-4,-0.0611 -0.017924,-0.12092 -0.050751,-0.17255 l -0.740984,-1.17936 c -4.872e-4,-8.4e-4 -0.00135,8.2e-4 -0.00196,0 -0.1387282,-0.22902 -0.3959321,-0.34087 -0.6432681,-0.31846 z m -1.812481,4.59495 v 2.27306 a 0.32481284,0.32481284 0 0 0 0.3248136,0.32481 h 3.2493954 a 0.32481284,0.32481284 0 0 0 0.3248138,-0.32481 v -2.27306 A 0.32481284,0.32481284 0 0 0 7.1683663,285.30978 H 3.9189709 a 0.32481284,0.32481284 0 0 0 -0.3248136,0.32481 z m 6.1720769,2.59787 c -0.534218,0 -0.9738037,0.44148 -0.9738037,0.9757 v 0.32355 h 3.5729375 c 0.433506,0 0.433506,0.65026 0,0.65026 H 8.7949683 c -0.00503,1.2936 -0.00257,2.60012 -0.00257,3.89838 8.444e-4,0 0.00172,0 0.00257,0 h 5.1938327 v -4.87219 c 0,-0.53422 -0.439587,-0.9757 -0.973805,-0.9757 z m -6.1720769,0.97508 v 0.38507 c -0.3758772,0.13629 -0.6496247,0.49574 -0.6496247,0.91544 v 4.87219 c 0,0.35493 0.294691,0.64963 0.6496247,0.64963 H 4.244418 v -2.27559 c -1.633e-4,-0.16699 0.1263031,-0.3069 0.2924579,-0.32354 0.011171,-5.8e-4 0.022417,-5.8e-4 0.033625,0 h 1.9469725 c 0.1793827,-6.8e-4 0.325365,0.14416 0.3260818,0.32354 v 2.27559 h 0.6496259 c 0.354934,0 0.6496262,-0.2947 0.6496262,-0.64963 v -4.87219 c 0,-0.4197 -0.273749,-0.77915 -0.6496262,-0.91544 v -0.38507 A 0.32544723,0.32544723 0 0 0 7.1677343,288.88209 H 3.9196056 a 0.32544723,0.32544723 0 0 0 -0.3254471,0.32545 z m 0.9788799,1.62405 h 1.9463393 c 0.4429147,-0.01 0.4429147,0.65958 0,0.64963 H 4.5730372 c -0.4429161,0.01 -0.4429161,-0.65957 0,-0.64963 z m 5.8428228,0 h 1.949512 c 0.179381,7.1e-4 0.324228,0.1467 0.323543,0.32609 v 1.94697 c 6.82e-4,0.17938 -0.144162,0.32536 -0.323543,0.32609 H 10.41586 c -0.179381,-7.2e-4 -0.324228,-0.14671 -0.323544,-0.32609 v -1.94697 c -6.82e-4,-0.17939 0.144163,-0.32536 0.323544,-0.32609 z m 0.326082,0.64963 v 1.29925 h 1.297348 v -1.29925 z m -6.2025286,0.64963 c 0.011172,-5.8e-4 0.022417,-5.8e-4 0.033625,0 h 0.973169 c 0.4425355,-0.01 0.4425355,0.65918 0,0.64962 h -0.973169 c -0.4243996,0.0129 -0.4570843,-0.61862 -0.033625,-0.64962 z m 0.3546293,1.9495 v 1.94952 h 1.299252 v -1.94952 z m 3.8983878,0.64963 v 0.65026 c 0,0.35493 0.295326,0.64963 0.6502609,0.64963 h 3.8958496 c 0.354935,0 0.65026,-0.2947 0.65026,-0.64963 v -0.65026 H 8.7949683 c -8.445e-4,0 -0.00172,0 -0.00257,0 z"
       style="color:#000000;font-style:normal;font-variant:normal;font-weight:normal;font-stretch:normal;font-size:medium;line-height:normal;font-family:sans-serif;font-variant-ligatures:normal;font-variant-position:normal;font-variant-caps:normal;font-variant-numeric:normal;font-variant-alternates:normal;font-feature-settings:normal;text-indent:0;text-align:start;text-decoration:none;text-decoration-line:none;text-decoration-style:solid;text-decoration-color:#000000;letter-spacing:normal;word-spacing:normal;text-transform:none;writing-mode:lr-tb;direction:ltr;text-orientation:mixed;dominant-baseline:auto;baseline-shift:baseline;text-anchor:start;white-space:normal;shape-padding:0;clip-rule:nonzero;display:inline;overflow:visible;visibility:visible;opacity:1;isolation:auto;mix-blend-mode:normal;color-interpolation:sRGB;color-interpolation-filters:linearRGB;solid-color:#000000;solid-opacity:1;vector-effect:none;fill:#000000;fill-opacity:1;fill-rule:nonzero;stroke:none;stroke-width:0.529167;stroke-linecap:round;stroke-linejoin:round;stroke-miterlimit:10;stroke-dasharray:none;stroke-dashoffset:0;stroke-opacity:1;paint-order:markers fill stroke;color-rendering:auto;image-rendering:auto;shape-rendering:auto;text-rendering:auto;enable-background:accumulate" />
  </g>
</svg>
